<?xml version="1.0" standalone="no"?>
<!DOCTYPE svg PUBLIC "-//W3C//DTD SVG 20010904//EN"
 "http://www.w3.org/TR/2001/REC-SVG-20010904/DTD/svg10.dtd">
<svg version="1.0" xmlns="http://www.w3.org/2000/svg"
 width="2000.000000pt" height="2000.000000pt" viewBox="0 0 2000.000000 2000.000000"
 preserveAspectRatio="xMidYMid meet">

<g transform="translate(0.000000,2000.000000) scale(0.100000,-0.100000)"
fill="#000000" stroke="none">
<path d="M10125 17869 c-506 -18 -936 -89 -1696 -279 -490 -123 -588 -142
-711 -138 -98 3 -100 3 -124 -25 -13 -15 -27 -39 -30 -53 -11 -42 24 -111 92
-182 l64 -67 -27 -20 c-215 -156 -632 -548 -835 -785 -26 -30 -81 -95 -124
-145 -42 -49 -131 -160 -197 -245 -339 -435 -589 -700 -759 -802 -34 -21 -71
-38 -82 -38 -37 0 -83 -36 -96 -74 -10 -32 -9 -42 11 -82 34 -71 171 -204 252
-245 80 -40 80 -33 5 -188 -78 -160 -173 -291 -254 -352 -41 -30 -64 -70 -64
-110 0 -39 49 -78 131 -104 44 -14 91 -25 105 -25 13 0 24 -2 24 -5 0 -2 -24
-44 -54 -93 -29 -49 -57 -98 -60 -109 -10 -30 123 -593 241 -1018 128 -465
185 -621 358 -971 62 -126 119 -250 125 -275 21 -78 101 -271 159 -384 31 -60
58 -114 60 -119 9 -23 -265 160 -389 259 -52 42 -132 112 -177 156 -74 72 -82
84 -88 127 -21 156 -90 291 -222 435 -35 38 -74 88 -88 110 l-24 42 10 320
c10 346 8 365 -39 383 -15 6 -108 24 -207 41 -99 17 -423 74 -720 126 -297 52
-561 98 -588 101 -57 8 -82 -7 -204 -124 l-83 -78 1 -240 0 -239 -152 -760
c-101 -501 -151 -769 -146 -786 5 -21 24 -35 89 -67 186 -90 395 -166 599
-216 285 -71 467 -91 757 -84 l202 5 6 -26 c3 -14 20 -75 39 -136 76 -246 208
-457 422 -676 l114 -116 -53 -6 c-80 -10 -322 -8 -423 3 -49 6 -141 20 -202
32 l-113 21 -42 50 c-71 85 -207 156 -348 182 -19 4 -62 17 -95 30 -82 32
-207 54 -346 62 l-117 6 -5 48 c-13 105 -74 178 -175 209 -69 22 -215 51 -352
72 -117 18 -615 17 -735 0 -239 -36 -481 -99 -533 -138 -42 -33 -81 -92 -93
-141 -6 -28 14 -248 82 -873 98 -912 94 -887 166 -951 85 -74 167 -84 678 -84
558 0 683 18 760 108 38 44 65 118 65 178 0 20 3 49 6 65 l5 29 92 -7 c51 -3
93 -7 93 -7 1 -1 4 -24 6 -52 7 -70 49 -126 122 -163 51 -26 66 -29 151 -28
57 1 143 11 219 27 69 14 134 25 145 25 45 0 149 41 189 76 l42 36 35 -30 c99
-87 300 -194 470 -250 204 -68 437 -102 689 -102 l173 0 19 -42 c37 -85 135
-216 215 -292 220 -207 552 -363 1014 -474 128 -31 160 -42 159 -55 0 -10 -1
-46 -2 -82 l-2 -65 -1812 -2 -1813 -3 -46 -21 c-64 -30 -116 -79 -147 -138
-23 -44 -26 -63 -27 -146 0 -124 18 -173 89 -238 29 -26 72 -54 95 -62 38 -12
45 -20 72 -78 100 -222 292 -365 538 -403 80 -12 82 -13 77 -38 -3 -14 -33
-183 -66 -376 -33 -192 -81 -465 -105 -605 -25 -140 -83 -473 -129 -740 -47
-267 -128 -731 -180 -1032 -53 -301 -96 -563 -96 -584 0 -106 164 -213 354
-230 67 -6 74 -5 98 17 26 24 166 362 243 588 l33 96 1 -412 1 -412 -27 -4
-28 -4 28 -2 29 -1 -3 -77 c-2 -47 0 -78 6 -79 6 0 23 -6 40 -13 22 -9 96 -11
285 -7 288 5 290 5 290 24 0 7 -5 10 -11 6 -22 -13 8 298 131 1361 11 94 31
269 45 390 13 121 51 456 84 745 72 632 129 1127 144 1270 l12 105 938 3 938
2 -36 -47 c-58 -75 -142 -257 -169 -365 -40 -154 -50 -285 -36 -450 7 -77 8
-143 4 -148 -5 -4 -38 -15 -73 -24 -130 -33 -209 -98 -265 -216 -27 -57 -30
-75 -30 -150 1 -119 28 -186 108 -266 71 -71 129 -97 255 -114 70 -9 86 -15
117 -44 31 -28 35 -36 25 -53 -6 -12 -24 -70 -40 -131 -51 -184 -131 -365
-255 -572 -68 -114 -86 -170 -86 -266 0 -175 90 -318 249 -392 74 -35 80 -36
191 -36 103 0 125 3 210 33 232 79 500 260 730 490 149 149 225 259 251 361
23 89 15 278 -16 380 -4 11 9 22 42 35 26 11 59 30 75 43 l27 23 242 -10 c133
-6 243 -12 245 -13 1 -2 27 -275 58 -608 31 -333 59 -622 62 -642 l6 -38 -205
0 -204 0 -62 -31 c-89 -45 -139 -118 -148 -220 l-6 -58 -46 -4 -46 -3 47 -2
c54 -2 68 -24 47 -73 -8 -22 -9 -33 -1 -41 8 -8 9 -5 6 9 -7 25 21 51 30 27 3
-9 3 -21 -1 -26 -3 -6 -1 -8 4 -5 6 4 19 -5 28 -19 9 -15 13 -24 9 -21 -5 3
-10 -6 -10 -19 -2 -20 0 -21 13 -9 17 18 24 19 20 4 -1 -6 4 -14 12 -17 9 -3
11 0 6 7 -4 7 11 3 34 -8 22 -12 47 -21 56 -21 25 0 17 -18 -12 -28 -16 -6
-21 -11 -13 -11 13 -1 13 -2 0 -12 -11 -8 -8 -9 15 -4 17 4 248 7 515 8 l485
1 -480 6 c-264 4 -481 7 -482 8 -26 19 78 22 746 22 718 0 846 3 836 20 -3 4
5 11 18 14 37 10 87 64 114 122 46 100 22 225 -57 304 -71 71 -86 75 -361 78
l-246 3 4 42 c3 23 33 311 67 639 34 329 64 600 67 602 2 3 106 8 230 12 l226
7 34 -24 c19 -13 35 -25 37 -25 2 -1 -4 -26 -13 -56 -22 -73 -31 -270 -15
-350 15 -78 37 -123 105 -213 144 -192 432 -434 675 -568 139 -76 307 -127
422 -127 218 0 397 158 430 379 16 110 -6 190 -94 337 -118 197 -204 393 -248
564 -11 43 -22 85 -25 93 -4 9 14 29 50 56 l55 42 164 19 c94 11 187 28 218
40 72 27 147 95 189 172 33 61 34 67 34 173 0 127 -15 170 -90 253 -61 67
-120 95 -281 133 l-141 32 1 221 c1 199 -1 230 -22 311 -39 153 -102 297 -176
400 l-36 50 942 3 c518 1 945 -1 949 -5 3 -5 16 -93 28 -198 11 -104 64 -568
116 -1030 53 -462 120 -1058 151 -1325 30 -267 68 -602 85 -744 35 -309 53
-496 51 -551 0 -26 2 -33 7 -22 6 17 8 16 21 -7 l13 -26 243 0 c151 0 245 -4
249 -10 3 -5 16 -10 28 -10 21 1 21 1 4 14 -17 13 -17 14 0 21 10 5 21 7 25 7
5 -1 7 1 7 6 -1 4 -1 228 0 497 l2 490 58 -160 c98 -267 199 -509 222 -527 61
-51 302 15 395 108 64 64 66 81 38 240 -69 395 -413 2363 -519 2974 -19 113
-38 217 -41 231 -5 26 -4 26 68 32 264 23 481 174 588 410 26 57 33 65 63 71
48 9 119 59 152 106 40 58 54 106 55 192 0 100 -25 169 -82 225 -63 62 -117
83 -214 83 -44 0 -129 3 -187 7 l-107 6 0 54 0 53 28 -7 c54 -16 164 -7 219
17 49 21 143 106 143 129 0 5 33 43 74 84 l73 76 99 10 c377 42 846 172 1244
346 130 57 121 34 125 306 4 265 21 431 86 805 88 517 103 651 103 969 0 287
-18 437 -64 537 -13 27 -82 60 -206 99 l-40 13 -17 83 c-22 107 -33 129 -69
144 -27 11 -37 9 -104 -24 -41 -21 -78 -37 -83 -37 -5 0 -21 35 -35 78 -29 83
-54 112 -93 112 -14 0 -78 -25 -142 -56 -179 -86 -420 -186 -591 -247 -162
-57 -409 -132 -415 -125 -2 2 6 35 17 73 17 56 21 98 21 210 0 123 -3 151 -27
228 -28 95 -71 186 -119 256 -63 92 -359 386 -522 518 l-80 65 -7 62 c-7 57
-29 140 -65 246 -21 59 -110 146 -188 184 -36 17 -83 52 -116 85 -83 85 -132
105 -249 105 -52 0 -108 -1 -125 -3 -16 -1 -71 1 -121 5 -83 6 -96 5 -136 -16
l-45 -22 -99 43 c-54 23 -101 44 -103 46 -2 1 30 74 72 162 215 447 306 782
307 1126 0 176 -15 270 -85 519 -107 380 -306 1205 -375 1549 -9 43 -21 69
-47 98 l-35 38 39 18 c65 29 93 61 93 106 0 56 -11 70 -100 122 -44 26 -80 49
-80 51 0 2 33 22 74 44 41 23 80 47 86 55 21 26 24 90 5 119 -30 46 -247 141
-428 187 -177 45 -236 52 -481 55 l-240 3 -59 88 c-281 414 -676 726 -1157
916 -405 159 -845 219 -1455 196z m790 -228 c494 -75 893 -248 1244 -539 177
-147 352 -351 457 -532 66 -113 71 -116 163 -110 42 3 164 5 271 5 183 -1 285
-12 385 -42 19 -6 18 -7 -5 -15 -21 -6 -20 -7 8 -3 43 6 93 -5 85 -18 -4 -6 0
-8 10 -4 9 3 29 0 43 -8 15 -8 31 -12 36 -9 4 3 8 1 8 -4 0 -6 -12 -15 -27
-21 -16 -6 -43 -21 -61 -32 -32 -21 -34 -21 -113 -5 -43 9 -89 16 -100 16 -11
0 -18 4 -15 8 6 10 -447 8 -519 -2 l-50 -7 -29 53 c-67 124 -176 270 -295 393
-410 426 -933 676 -1571 750 -195 22 -570 30 -795 16 -505 -31 -872 -95 -1598
-276 -230 -58 -422 -105 -427 -105 -5 0 -16 12 -24 28 -8 15 -33 38 -56 51
-23 12 -39 25 -37 27 3 3 56 16 118 29 63 13 258 59 434 104 438 109 466 116
692 160 281 56 491 85 833 115 25 2 214 2 420 1 322 -3 395 -6 515 -24z
m-3045 -717 l39 -26 -112 -80 c-193 -139 -310 -239 -556 -482 -249 -246 -414
-434 -681 -776 -74 -95 -157 -197 -185 -226 -27 -28 -90 -96 -139 -150 -49
-55 -93 -100 -97 -102 -3 -2 -14 4 -22 12 -13 14 -16 14 -27 0 -11 -12 -10
-13 2 -9 23 9 33 -27 12 -42 -9 -7 -21 -10 -27 -6 -6 3 -7 2 -4 -4 10 -16 -49
-74 -70 -67 -13 4 -14 3 -5 -4 11 -7 5 -16 -24 -40 -29 -24 -41 -29 -51 -20
-7 6 -13 7 -13 3 0 -5 -9 0 -20 10 -25 22 -26 37 -2 28 9 -3 14 -3 10 2 -4 4
21 28 55 53 34 25 64 49 67 53 3 4 14 7 24 6 10 -1 20 4 22 11 1 7 0 8 -3 2
-2 -5 -9 -10 -14 -10 -5 0 46 54 113 119 82 81 126 117 134 111 7 -6 11 -5 11
5 0 8 -5 11 -10 8 -21 -13 1 18 55 79 31 34 78 91 105 124 26 34 73 92 104
130 30 38 107 134 169 214 261 331 534 625 801 861 85 75 287 239 294 239 3 0
23 -12 45 -26z m3696 -1260 c147 -38 255 -98 367 -204 191 -180 276 -411 264
-712 -6 -147 -17 -121 121 -285 408 -480 759 -1088 957 -1656 26 -75 46 -139
44 -142 -3 -2 -43 8 -89 22 -76 24 -101 27 -240 27 -144 0 -160 -2 -230 -27
-202 -74 -290 -158 -490 -467 -80 -123 -149 -234 -153 -247 -16 -44 3 -77 96
-168 311 -304 684 -507 958 -522 97 -6 98 -6 123 22 14 15 26 24 26 20 0 -22
-135 -281 -190 -364 -355 -540 -927 -910 -1705 -1105 -434 -108 -868 -156
-1428 -156 -901 0 -1602 139 -2187 436 -490 247 -846 595 -1067 1042 -50 101
-63 136 -55 144 18 18 15 52 -28 349 -22 151 -52 360 -66 464 l-26 190 67 160
c337 807 741 1436 1173 1828 34 31 66 57 70 57 4 0 21 -9 37 -21 59 -40 201
-107 280 -132 44 -14 139 -35 210 -47 113 -20 153 -22 312 -17 179 5 182 5
270 -23 48 -15 138 -36 198 -46 74 -11 139 -29 200 -55 138 -57 226 -74 393
-74 l144 0 29 33 c20 23 29 43 29 68 0 51 -12 68 -75 103 -47 27 -115 98 -115
121 0 5 28 -1 63 -13 79 -26 306 -35 381 -15 59 16 90 52 89 103 -1 28 -12 47
-57 95 -93 101 -146 236 -146 375 0 98 4 102 60 55 73 -61 156 -108 245 -137
72 -24 95 -27 235 -27 256 -1 370 37 370 125 0 37 -7 47 -78 117 -99 97 -117
137 -110 252 4 69 11 92 46 162 94 189 203 273 399 308 63 12 206 3 279 -16z
m-7026 -2859 c234 -41 507 -89 608 -107 l182 -31 0 -59 c0 -56 -1 -58 -22 -53
-106 26 -590 128 -883 186 -198 39 -366 73 -374 75 -11 3 -7 12 14 34 16 17
34 30 39 30 6 0 202 -34 436 -75z m-292 -105 c227 -39 790 -127 957 -150 133
-18 121 -7 117 -107 -3 -67 -8 -90 -20 -99 -15 -11 -18 -6 -23 48 -6 60 -15
74 -54 83 -87 20 -1137 183 -1150 179 -28 -11 -35 -50 -35 -199 0 -143 0 -144
26 -164 15 -12 35 -21 45 -21 10 0 246 -36 525 -80 279 -44 510 -80 514 -80 3
0 12 -27 18 -60 7 -34 16 -68 19 -77 5 -12 2 -13 -13 -5 -31 16 -293 38 -312
25 -11 -6 -28 -57 -49 -139 -37 -151 -39 -176 -15 -196 25 -22 288 -71 312
-58 19 10 21 17 69 240 l18 85 12 -45 c7 -25 16 -60 21 -79 7 -26 4 -47 -16
-100 -57 -148 -77 -220 -83 -296 -10 -113 -181 -803 -200 -807 -8 -2 -80 0
-160 4 -319 14 -642 91 -981 231 -85 35 -105 48 -103 63 1 10 31 163 67 339
36 176 102 500 146 720 l81 399 -3 193 c-3 180 -2 193 15 193 10 0 125 -18
255 -40z m1246 -66 c18 -7 20 -46 9 -182 -6 -78 -7 -82 -27 -76 -12 4 -22 8
-24 9 -7 7 11 255 19 255 4 0 14 -3 23 -6z m-356 -249 l32 -6 0 -85 0 -85 -32
6 c-18 3 -233 37 -478 75 -245 38 -460 72 -477 75 l-33 6 0 88 0 87 478 -77
c262 -43 492 -80 510 -84z m8123 106 c289 -88 801 -285 782 -301 -5 -4 -61
-25 -126 -49 -155 -55 -282 -117 -328 -158 -20 -18 -46 -56 -58 -83 -12 -28
-25 -50 -30 -50 -5 0 -77 -88 -160 -195 -93 -120 -158 -195 -169 -195 -39 0
-182 41 -260 73 -106 45 -218 111 -334 197 -118 87 -256 211 -257 229 -2 25
233 375 289 431 65 64 175 125 263 146 104 23 199 12 388 -45z m1427 -315 c15
-8 38 -26 51 -40 l24 -26 -27 -70 c-15 -38 -32 -73 -37 -76 -5 -3 -29 6 -53
20 -56 33 -80 87 -71 158 l7 48 39 0 c22 0 52 -6 67 -14z m-9269 -89 c36 -95
109 -211 184 -294 153 -167 207 -308 173 -444 -22 -85 -57 -142 -132 -215 -60
-58 -220 -172 -229 -162 -2 2 4 41 15 87 30 125 28 136 -30 190 -52 49 -70 83
-70 135 0 54 29 146 75 243 25 51 45 99 45 107 0 8 -20 93 -45 189 -39 149
-44 179 -34 201 7 14 15 26 18 26 3 0 17 -28 30 -63z m9004 -110 c24 -59 86
-121 157 -157 51 -26 61 -36 83 -84 31 -67 100 -144 147 -163 53 -23 136 -18
192 11 l48 25 128 -102 c70 -56 213 -187 318 -292 157 -156 199 -203 233 -265
83 -151 110 -314 76 -466 -30 -137 -145 -352 -237 -442 l-34 -32 -79 20 c-274
65 -505 192 -673 369 -57 59 -122 142 -122 154 0 3 21 42 47 88 69 123 160
247 204 277 44 31 64 70 55 108 -4 14 -34 51 -68 82 -34 31 -109 105 -166 164
-112 116 -237 216 -402 323 -58 38 -106 69 -108 71 -2 1 11 25 28 53 69 111
77 228 25 354 -6 15 5 12 61 -16 61 -31 71 -40 87 -80z m566 -23 c28 -36 27
-47 -14 -132 -54 -112 -96 -118 -147 -19 l-19 38 43 88 43 88 37 -18 c20 -10
46 -30 57 -45z m-885 20 c12 -31 6 -96 -13 -132 -11 -20 -44 -63 -75 -96 -50
-52 -56 -63 -56 -100 1 -52 19 -74 95 -116 176 -97 407 -265 513 -373 l54 -55
-34 -25 c-221 -166 -533 -92 -850 201 l-61 57 6 200 c3 113 11 222 19 250 13
49 14 50 98 93 79 40 261 110 286 112 7 0 15 -7 18 -16z m-8872 -849 c3 -3
-13 -78 -34 -168 -22 -89 -37 -173 -35 -187 2 -14 -3 -54 -12 -89 -13 -53 -20
-65 -38 -68 -13 -1 -23 2 -23 8 0 24 124 509 130 509 4 0 9 -2 12 -5z m8411
-272 c9 -3 17 -10 17 -15 0 -5 3 -7 8 -4 8 4 112 -86 112 -98 0 -4 -22 5 -49
21 -55 30 -158 119 -126 108 11 -4 28 -10 38 -12z m928 -86 c-28 -47 -65 -115
-82 -151 -38 -81 -35 -92 50 -210 121 -167 320 -331 519 -426 l82 -40 0 -214
0 -214 -72 -28 c-115 -43 -199 -102 -258 -180 l-38 -51 -104 14 c-242 32 -768
140 -768 157 0 5 20 32 44 60 171 200 360 572 465 911 29 94 82 308 95 385 6
31 12 37 59 56 28 11 54 19 56 18 1 -2 -20 -41 -48 -87z m-671 23 c11 -11 15
-22 10 -25 -6 -4 -10 -1 -10 5 0 7 -6 10 -13 7 -8 -3 -13 3 -13 14 0 24 1 24
26 -1z m308 -22 c-3 -7 -17 -15 -32 -19 -27 -8 -28 -7 -10 12 19 21 48 26 42
7z m-729 -56 c105 -89 251 -173 378 -218 44 -15 52 -23 57 -49 8 -41 -8 -170
-29 -230 -29 -85 -147 -300 -224 -410 -93 -132 -233 -285 -262 -285 -23 0
-330 71 -408 94 -30 9 -56 14 -58 12 -13 -13 324 -183 587 -296 158 -68 224
-88 524 -155 109 -24 200 -45 201 -47 2 -2 -9 -47 -25 -101 -51 -177 -65 -276
-65 -467 0 -96 3 -189 7 -207 l7 -32 -72 -16 c-119 -25 -320 -46 -523 -52
l-191 -6 -12 54 c-56 244 -189 505 -406 794 -91 121 -276 322 -212 230 293
-420 445 -775 464 -1082 l6 -102 -43 -58 c-137 -184 -325 -301 -639 -397 -46
-14 -86 -25 -87 -23 -2 2 14 68 35 147 21 80 67 252 101 382 41 154 68 239 78
243 8 3 74 8 148 12 106 5 134 9 139 21 15 40 -55 60 -206 61 l-87 1 -5 33
c-3 17 -14 86 -23 152 -13 91 -23 128 -40 151 -12 17 -28 31 -36 32 -7 1 -67
17 -133 37 -66 20 -201 54 -300 76 -99 21 -190 42 -202 44 -29 7 -29 12 2 96
30 84 59 143 92 187 46 62 5 83 -64 33 -54 -39 -105 -100 -165 -198 -28 -46
-57 -83 -64 -83 -7 0 -82 9 -166 20 -196 25 -436 47 -657 60 -96 6 -176 12
-178 14 -2 2 19 18 46 35 40 26 71 35 168 51 143 23 297 54 378 76 315 87 555
182 770 306 92 53 108 62 119 71 6 4 49 34 96 66 130 90 301 242 392 349 116
135 181 197 289 272 52 36 139 101 194 145 55 44 107 85 115 92 8 6 40 32 70
57 30 25 59 46 64 46 6 0 30 -17 55 -38z m701 -38 c-16 -32 -26 -42 -33 -35
-7 7 -5 22 9 48 37 74 60 62 24 -13z m-7914 -32 c195 -144 582 -367 722 -416
22 -8 64 -25 93 -39 66 -30 220 -85 355 -127 106 -33 105 -33 276 -176 124
-104 389 -274 427 -274 5 0 37 -16 71 -35 34 -19 69 -35 77 -35 8 0 28 14 45
30 16 17 35 30 41 30 7 0 0 -10 -15 -21 -29 -22 -37 -49 -15 -49 7 0 19 6 27
13 12 10 12 9 1 -5 -7 -10 -21 -18 -30 -19 -25 0 81 -46 219 -93 111 -39 267
-81 484 -131 38 -9 82 -25 98 -36 15 -11 67 -39 114 -63 l87 -43 -84 -7 c-315
-26 -760 -78 -1052 -123 -92 -14 -169 -24 -171 -22 -2 2 -25 78 -52 169 -40
133 -53 165 -68 168 -42 8 -44 -19 -15 -170 37 -190 37 -186 -8 -194 -320 -56
-447 -84 -464 -101 -20 -20 -31 -69 -50 -225 l-11 -98 -69 0 c-80 0 -216 -18
-242 -32 -12 -6 -17 -18 -15 -36 l3 -27 135 -2 c165 -3 180 -6 180 -36 0 -13
11 -61 24 -107 13 -47 35 -130 50 -185 14 -55 51 -193 81 -306 30 -113 55
-208 55 -212 0 -12 -62 1 -180 37 -442 134 -703 286 -878 511 -66 85 -72 98
-72 162 0 147 64 371 160 563 104 207 319 514 484 687 22 24 37 45 34 49 -8 7
-348 -330 -395 -391 -110 -141 -152 -196 -179 -235 -112 -163 -212 -373 -250
-522 l-16 -68 -88 0 c-128 0 -330 18 -457 40 -104 19 -326 79 -340 93 -3 4 6
33 21 66 14 32 35 94 46 137 27 110 28 315 0 440 -11 49 -20 92 -20 95 0 3 55
7 123 8 384 6 641 87 976 308 120 80 291 218 291 235 0 6 -10 3 -22 -6 -45
-32 -255 -134 -348 -169 -52 -19 -142 -48 -200 -63 l-106 -28 -29 25 c-34 28
-65 57 -131 120 -195 185 -373 460 -390 601 l-6 54 45 18 c144 55 319 174 418
287 60 67 61 67 92 54 17 -7 67 -40 113 -73z m7994 63 c0 -8 -4 -17 -10 -20
-6 -4 -10 5 -10 20 0 15 4 24 10 20 6 -3 10 -12 10 -20z m-8421 -1 c-15 -18
-124 -94 -135 -94 -13 0 38 43 90 78 57 36 64 39 45 16z m8257 -50 c4 -16 13
-24 27 -24 16 0 18 -3 9 -12 -9 -9 -17 -7 -35 10 -13 12 -25 20 -28 18 -2 -2
-5 6 -5 19 -2 31 24 22 32 -11z m141 -30 c-3 -3 -12 -4 -19 -1 -8 3 -5 6 6 6
11 1 17 -2 13 -5z m-14 -21 c-7 -2 -19 -2 -25 0 -7 3 -2 5 12 5 14 0 19 -2 13
-5z m2861 -112 c124 -391 175 -840 162 -1421 -7 -322 -36 -809 -62 -1048 l-6
-53 -76 -35 c-218 -100 -446 -175 -686 -224 -54 -11 -99 -20 -100 -20 0 0 -1
60 -1 133 0 83 -5 146 -13 169 -13 36 -12 37 36 105 55 75 82 145 82 208 0 27
10 61 30 97 68 125 89 312 51 459 -10 41 -22 103 -26 139 -9 91 -43 231 -76
322 -31 85 -49 119 -88 161 -16 17 -30 50 -38 87 -19 93 -70 187 -139 256 -34
33 -69 74 -77 91 -21 40 -112 122 -170 153 -80 43 -59 67 88 105 258 65 679
217 955 344 58 27 110 49 117 50 7 1 23 -35 37 -78z m271 -147 c14 -88 32
-524 21 -499 -3 6 -14 75 -25 155 -12 80 -32 195 -46 255 -14 61 -28 121 -31
135 -5 21 0 28 28 42 18 8 34 15 35 13 2 -1 10 -46 18 -101z m224 -130 c22 -9
42 -23 45 -32 24 -81 31 -181 30 -447 0 -325 -11 -437 -83 -845 -72 -408 -101
-656 -104 -913 l-3 -151 -119 -48 c-280 -112 -633 -215 -904 -264 -165 -29
-196 -31 -183 -8 7 12 56 26 173 50 90 18 220 49 289 69 218 63 579 216 599
254 12 22 46 406 62 696 8 161 19 250 45 385 34 182 63 366 86 555 8 68 13
226 13 412 0 167 3 303 7 303 4 0 26 -7 47 -16z m-14161 -164 c52 -7 66 -14
90 -41 30 -36 36 -66 12 -61 -127 30 -550 40 -740 18 -74 -8 -149 -17 -167
-20 -24 -4 -31 -2 -27 9 13 33 -127 24 -190 -13 -64 -38 -72 -102 -17 -141 80
-57 254 -73 756 -70 l400 3 -2 -44 c0 -25 -6 -94 -12 -155 -33 -345 -42 -440
-60 -640 -11 -121 -27 -314 -36 -430 -19 -231 -31 -281 -74 -292 -42 -11 -586
-7 -720 5 -130 12 -165 24 -181 66 -8 23 -23 155 -131 1158 -50 466 -52 487
-35 513 22 33 39 40 221 80 139 32 323 59 455 69 82 6 386 -3 458 -14z m12447
-55 c22 -13 55 -39 74 -59 l34 -35 -29 -7 c-111 -26 -150 -170 -60 -225 49
-30 108 -25 151 12 19 17 38 42 41 55 3 13 10 24 15 24 13 0 71 -89 91 -142
25 -68 24 -78 -12 -78 -70 0 -120 -53 -120 -128 0 -45 32 -87 75 -98 54 -13
127 26 149 79 3 9 7 8 15 -3 20 -29 69 -175 89 -268 18 -85 19 -93 4 -86 -35
16 -109 16 -140 0 -43 -22 -76 -94 -67 -146 13 -78 96 -129 178 -110 21 4 46
15 56 24 10 9 20 16 23 16 3 0 9 -35 13 -77 8 -94 -19 -244 -51 -282 -1 -1
-20 11 -41 28 -70 56 -156 47 -207 -22 -65 -88 36 -216 151 -190 39 9 43 8 43
-9 0 -29 -27 -86 -61 -129 l-31 -39 -44 26 c-37 22 -53 26 -92 21 -93 -10
-146 -114 -87 -172 29 -30 78 -33 147 -8 26 9 51 13 55 9 10 -10 10 -282 0
-292 -4 -4 -31 -11 -60 -16 -73 -12 -561 -22 -640 -14 l-65 7 -4 107 c-4 120
-20 162 -68 187 -16 8 -43 15 -60 15 l-30 0 0 956 0 956 28 -7 c72 -19 210
-45 239 -45 26 0 45 12 95 59 35 32 77 77 93 100 33 45 42 45 110 6z m-12172
-32 c-7 -2 -19 -2 -25 0 -7 3 -2 5 12 5 14 0 19 -2 13 -5z m-70 -90 c-7 -2
-19 -2 -25 0 -7 3 -2 5 12 5 14 0 19 -2 13 -5z m12390 -60 c10 -20 -15 -74
-39 -83 -52 -20 -85 30 -47 72 16 18 78 26 86 11z m-12423 -73 c0 -5 -5 -10
-11 -10 -5 0 -7 5 -4 10 3 6 8 10 11 10 2 0 4 -4 4 -10z m583 -36 c48 -3 87
-9 87 -13 0 -4 -17 -32 -38 -62 -27 -39 -44 -54 -60 -53 -12 0 -57 1 -100 2
l-79 2 4 58 c6 81 6 80 55 76 24 -2 82 -6 131 -10z m4142 -4 c-28 -12 -37 -12
-30 0 3 6 16 10 28 9 21 0 21 -1 2 -9z m-152 -33 c-7 -13 -10 -13 -23 1 -13
14 -12 15 3 9 10 -4 17 -2 17 5 0 6 3 9 6 5 3 -3 2 -12 -3 -20z m177 13 c13
-8 13 -10 -2 -10 -9 0 -20 5 -23 10 -8 13 5 13 25 0z m120 -16 l25 -15 -25 7
c-14 3 -29 10 -34 15 -16 14 6 10 34 -7z m-3914 -69 c240 -50 316 -161 273
-399 -10 -54 -8 -74 15 -176 52 -233 53 -434 2 -545 -30 -67 -70 -95 -149
-105 -34 -5 -107 -18 -162 -30 -133 -28 -238 -31 -261 -8 -17 16 -17 18 1 38
13 14 31 20 62 20 68 0 176 28 221 57 90 59 132 195 139 460 5 171 4 182 -14
202 -27 29 -44 90 -52 185 -6 69 -10 81 -35 102 -38 33 -75 30 -127 -10 -65
-49 -143 -86 -184 -86 -60 0 -58 5 112 248 49 70 48 69 159 47z m11664 -143
c0 -33 -30 -63 -58 -60 -34 4 -40 30 -13 57 26 26 71 28 71 3z m-12151 -65
c-10 -18 -19 -45 -19 -60 0 -15 -14 -55 -31 -88 -63 -125 -86 -290 -54 -394 8
-27 12 -51 10 -53 -2 -3 -15 -2 -29 2 -21 5 -24 10 -20 43 3 21 15 158 29 305
13 147 26 271 28 275 3 4 28 6 55 5 l51 -4 -20 -31z m1032 -76 c30 -5 75 -12
101 -16 l47 -6 20 -62 c30 -91 42 -178 42 -281 -1 -83 -20 -198 -35 -213 -7
-8 -106 19 -168 46 l-45 19 -8 67 c-4 37 -17 117 -30 178 -16 79 -20 119 -14
141 5 17 9 55 9 83 0 59 -2 58 81 44z m10039 -324 c-6 -19 -10 -188 -10 -450
l0 -420 -64 7 c-79 8 -154 33 -165 55 -5 9 -17 57 -27 106 -24 113 -27 478 -6
590 21 106 61 233 86 274 31 49 99 109 150 132 l41 18 3 -141 c1 -80 -2 -155
-8 -171z m-5509 233 c35 0 74 -8 103 -20 25 -12 46 -22 46 -23 0 -1 -24 -3
-53 -4 -28 -1 -105 -5 -171 -9 l-119 -6 32 40 c31 38 34 39 69 31 20 -5 62 -9
93 -9z m808 -27 c2 -2 -52 -3 -120 -3 -138 0 -148 15 -12 19 48 1 89 4 92 6 2
3 11 -1 20 -7 9 -7 18 -14 20 -15z m-6134 -68 c45 1 83 -4 87 -10 4 -5 8 -34
8 -62 0 -49 -2 -53 -27 -60 -48 -13 -137 -8 -187 11 -46 18 -48 20 -43 50 3
17 10 43 16 59 9 24 14 26 38 20 16 -5 64 -8 108 -8z m10287 -51 c57 -9 104
-17 106 -19 1 -1 -6 -42 -17 -91 -11 -49 -25 -150 -31 -224 -7 -74 -13 -136
-15 -138 -2 -2 -65 -19 -141 -37 -152 -38 -157 -37 -149 25 2 19 7 71 10 115
7 87 32 211 65 318 24 78 15 75 172 51z m-3992 -74 c348 -11 508 -22 805 -55
361 -41 758 -114 972 -180 l82 -25 6 -58 c3 -31 10 -86 15 -122 9 -63 7 -76
-56 -310 -36 -135 -86 -321 -110 -415 -25 -93 -49 -183 -54 -200 -4 -16 -31
-118 -59 -225 -28 -107 -56 -205 -61 -217 l-9 -23 -2113 0 c-1162 0 -2118 4
-2124 8 -6 4 -16 25 -22 47 -6 22 -28 105 -50 185 -22 80 -93 345 -157 590
l-117 445 16 140 c9 76 21 142 27 146 30 18 685 123 1049 168 727 90 1334 121
1960 101z m5760 -35 c48 -25 54 -48 24 -84 -29 -35 -66 -40 -102 -15 -28 19
-29 67 -2 94 24 24 41 25 80 5z m-12083 -103 l103 -4 -18 -30 c-24 -42 -60
-68 -93 -68 -33 0 -92 48 -116 93 -14 28 -14 29 3 22 11 -4 65 -10 121 -13z
m248 -154 c-4 -24 -15 -62 -26 -86 -31 -72 -52 -77 -336 -77 -149 0 -245 4
-251 10 -5 6 -7 31 -4 58 l4 47 77 0 c64 0 82 -4 112 -24 127 -86 264 -73 369
35 21 22 42 49 45 60 11 34 17 20 10 -23z m11796 -287 c36 -36 36 -45 4 -59
-38 -18 -72 -15 -95 8 -24 24 -25 38 -3 62 24 26 60 22 94 -11z m-1894 -47
c-3 -3 -12 -4 -19 -1 -8 3 -5 6 6 6 11 1 17 -2 13 -5z m1748 -314 c6 -10 -51
-40 -75 -40 -14 0 -13 37 3 43 22 9 66 7 72 -3z m-1327 -84 c26 -13 73 -29
104 -36 l58 -13 -26 -25 c-14 -14 -30 -45 -36 -68 l-12 -43 -29 21 c-35 25
-108 48 -153 48 -178 0 -723 -197 -842 -304 -51 -47 -89 -122 -100 -201 -9
-56 -13 -64 -74 -125 -72 -73 -110 -144 -134 -250 l-16 -70 -644 0 -644 0 0
84 c0 92 13 143 38 150 10 3 58 14 107 26 444 102 729 286 886 568 l17 30 198
0 c382 1 799 75 1169 206 39 13 74 25 78 25 4 1 29 -10 55 -23z m447 -435 c60
-27 101 -66 129 -123 26 -51 26 -55 26 -280 l0 -228 -712 0 c-392 0 -771 -3
-842 -7 l-129 -6 8 39 c11 63 53 139 95 178 99 90 498 256 843 352 311 87 503
112 582 75z m879 -45 c-3 -8 -15 -17 -27 -20 -30 -8 -248 -6 -322 4 l-60 7 80
3 c44 1 118 5 165 9 146 13 170 13 164 -3z m-451 -162 c34 -6 37 -9 37 -41 0
-66 51 -126 120 -140 l33 -6 -24 -19 c-39 -30 -125 -51 -177 -43 -83 12 -82
10 -82 146 l0 121 28 -6 c15 -3 44 -8 65 -12z m221 -36 c23 -33 20 -57 -9 -64
-35 -9 -84 14 -91 42 -9 33 2 44 46 44 29 0 43 -6 54 -22z m106 12 c0 -5 -5
-10 -11 -10 -5 0 -7 5 -4 10 3 6 8 10 11 10 2 0 4 -4 4 -10z m-3930 -365 l0
-45 -2105 0 -2105 0 0 45 0 45 2105 0 2105 0 0 -45z m3862 -265 c25 -19 40
-62 31 -87 -3 -7 -21 -17 -41 -23 -55 -15 -11759 -14 -11835 1 -56 12 -57 13
-57 45 0 26 4 34 18 34 13 0 14 2 4 9 -14 8 -3 23 28 34 8 3 2673 6 5921 6
5869 1 5906 1 5931 -19z m-10242 -882 c0 -7 -7 -71 -15 -143 -9 -71 -36 -308
-61 -525 -44 -390 -117 -1037 -194 -1710 -22 -190 -60 -523 -84 -740 -25 -217
-50 -441 -57 -497 l-12 -103 -119 0 -119 0 2 1353 c3 1375 0 1503 -36 1842
-20 181 -25 200 -55 200 -30 0 -34 -15 -54 -203 -32 -302 -39 -526 -38 -1231
l0 -704 -73 -146 c-40 -80 -83 -171 -95 -201 -12 -30 -32 -77 -44 -105 -13
-27 -45 -106 -71 -175 -26 -69 -50 -129 -53 -135 -4 -5 -7 -12 -7 -15 0 -3
-11 -40 -25 -82 -29 -88 -29 -88 -128 -41 -48 23 -53 28 -48 52 3 14 44 249
91 521 47 272 122 700 166 950 43 250 102 586 130 745 28 160 65 376 84 480
18 105 50 288 71 408 l38 217 403 0 c316 0 403 -3 403 -12z m9374 -20 c6 -37
321 -1844 367 -2113 16 -93 70 -402 120 -685 86 -490 89 -515 72 -528 -26 -20
-74 -40 -107 -44 -27 -3 -30 0 -58 77 -97 266 -128 345 -186 475 -78 177 -162
349 -174 356 -6 4 -7 207 -3 508 8 685 -10 1227 -51 1530 -16 121 -18 126 -44
126 -26 0 -28 -5 -44 -126 -46 -340 -55 -730 -48 -2116 l5 -1157 -121 0 c-101
-1 -122 2 -122 14 0 15 -32 306 -75 675 -27 239 -51 444 -125 1100 -28 245
-71 621 -95 835 -91 796 -125 1092 -125 1099 0 3 182 6 404 6 l404 0 6 -32z
m-4836 -1913 c1 -1 -9 -116 -23 -256 -14 -140 -42 -409 -61 -599 -19 -190 -37
-362 -40 -382 l-6 -38 -128 0 -128 0 -6 48 c-7 52 -61 650 -71 777 -8 102 -33
368 -40 420 l-6 41 253 -4 c139 -2 254 -5 256 -7z m-2134 -115 c176 -43 358
-48 521 -14 39 8 71 14 71 14 18 0 34 -184 23 -254 -12 -75 -41 -123 -131
-222 -264 -289 -669 -544 -867 -544 -136 0 -244 104 -242 235 0 65 6 79 73
190 106 173 205 393 248 551 12 44 26 93 31 110 l10 31 91 -39 c49 -21 127
-48 172 -58z m3955 -30 c42 -159 143 -383 265 -589 65 -110 75 -155 52 -235
-28 -94 -103 -154 -205 -163 -187 -17 -537 183 -826 472 -180 179 -204 223
-204 365 1 108 18 196 39 193 8 -1 60 -11 115 -23 203 -44 461 -26 645 44 47
18 88 30 91 27 3 -3 16 -44 28 -91z m-1287 -1343 c28 -22 32 -60 8 -90 l-21
-27 -739 0 c-697 0 -739 1 -760 18 -14 11 -22 29 -22 47 0 18 8 36 22 47 21
17 63 18 759 18 582 -1 740 -3 753 -13z m-1515 -353 c-3 -3 -12 -4 -19 -1 -8
3 -5 6 6 6 11 1 17 -2 13 -5z m-3816 -97 c-10 -9 -11 -8 -5 6 3 10 9 15 12 12
3 -3 0 -11 -7 -18z"/>
<path d="M13548 16363 c7 -3 16 -2 19 1 4 3 -2 6 -13 5 -11 0 -14 -3 -6 -6z"/>
<path d="M6216 15215 c-11 -8 -17 -17 -14 -20 2 -3 13 4 23 15 21 23 18 25 -9
5z"/>
<path d="M6129 15133 l-24 -27 33 23 c32 23 39 31 24 31 -5 0 -19 -12 -33 -27z"/>
<path d="M5907 14936 c-4 -10 -1 -13 8 -9 8 3 12 9 9 14 -7 12 -11 11 -17 -5z"/>
<path d="M8661 13784 c-187 -50 -352 -220 -390 -402 -16 -78 -12 -172 8 -172
3 0 17 33 30 73 31 96 77 171 148 239 101 96 204 134 341 125 70 -4 96 -11
156 -41 71 -34 146 -100 186 -161 11 -17 32 -65 46 -107 32 -96 60 -122 119
-115 98 14 110 102 35 254 -74 150 -216 266 -376 308 -73 19 -231 19 -303 -1z"/>
<path d="M11096 13785 c-154 -44 -301 -165 -369 -305 -51 -105 -64 -159 -47
-199 13 -33 54 -61 90 -61 35 0 76 27 88 57 6 15 18 51 27 79 79 251 376 366
620 242 110 -57 204 -173 248 -307 12 -38 27 -68 32 -67 6 0 10 38 9 91 -1 68
-7 103 -23 145 -54 133 -178 253 -316 307 -60 22 -88 27 -190 29 -80 2 -136
-1 -169 -11z"/>
<path d="M8647 12820 c-212 -54 -298 -278 -284 -745 3 -104 12 -218 20 -252
13 -62 13 -63 -7 -63 -35 0 -66 -28 -66 -59 0 -53 104 -121 255 -167 81 -25
106 -28 245 -28 161 -1 230 10 317 51 30 14 39 24 41 49 4 37 -26 54 -94 54
l-45 0 15 28 c22 43 44 164 56 313 33 391 -72 719 -255 800 -52 23 -146 32
-198 19z m13 -738 c69 -87 60 -268 -15 -318 -60 -40 -128 55 -128 180 0 143
79 220 143 138z"/>
<path d="M11032 12820 c-108 -16 -203 -110 -245 -240 -61 -187 -71 -596 -20
-797 4 -20 1 -23 -21 -23 -31 0 -66 -32 -66 -61 0 -54 167 -148 320 -179 164
-34 364 -22 483 29 52 23 71 44 62 71 -8 26 -43 40 -96 40 -44 0 -44 1 -25 38
42 82 69 447 47 626 -45 357 -201 533 -439 496z m-28 -712 c15 -6 36 -33 51
-62 48 -95 25 -258 -40 -288 -22 -10 -30 -8 -53 8 -84 62 -97 265 -20 329 34
29 30 28 62 13z"/>
<path d="M9553 11429 c-53 -10 -114 -41 -161 -83 -33 -31 -42 -34 -82 -29 -36
4 -49 1 -67 -17 -35 -32 -30 -76 16 -134 125 -158 356 -281 601 -321 94 -15
323 -21 355 -9 23 9 47 61 39 87 -15 51 -30 57 -143 57 -94 0 -270 15 -279 24
-2 2 7 32 19 67 46 138 -5 272 -130 338 -34 18 -119 28 -168 20z"/>
<path d="M4067 12118 c-11 -9 -37 -93 -76 -243 -33 -126 -98 -381 -146 -565
-65 -249 -85 -341 -78 -359 7 -23 30 -30 278 -93 425 -108 433 -110 454 -89
10 10 26 63 40 126 13 61 74 332 137 603 120 520 121 526 71 537 -16 3 -652
95 -662 95 0 0 -9 -6 -18 -12z"/>
<path d="M4752 11567 c-6 -6 -42 -143 -81 -302 -39 -160 -83 -338 -98 -398
-27 -106 -27 -107 -8 -126 13 -12 70 -29 165 -50 167 -35 183 -37 200 -16 12
15 153 669 165 771 5 39 3 53 -9 63 -16 13 -261 71 -302 71 -12 0 -26 -6 -32
-13z"/>
<path d="M16930 10249 c-37 -5 -91 -21 -128 -39 -62 -31 -64 -31 -103 -16 -22
9 -49 16 -62 16 -29 0 -118 -42 -137 -65 -17 -21 -89 -75 -100 -75 -4 0 -17 9
-30 20 -38 33 -63 25 -113 -34 -26 -29 -60 -59 -77 -66 -40 -17 -39 -33 3 -25
50 11 96 35 117 62 l19 25 27 -21 c45 -35 113 -23 159 29 54 61 153 98 182 69
22 -22 70 -12 139 30 38 23 95 51 126 63 32 11 55 24 52 29 -3 5 -6 8 -7 8 -1
-1 -31 -5 -67 -10z"/>
<path d="M16927 9934 c-3 -4 -66 -10 -139 -14 -124 -6 -139 -9 -221 -45 l-88
-38 -23 22 c-29 27 -48 27 -94 -4 -20 -13 -52 -29 -69 -36 -18 -6 -30 -15 -27
-20 8 -14 71 -11 110 6 33 14 37 13 57 -6 29 -27 80 -22 172 19 48 21 98 34
161 40 91 11 204 50 204 71 0 12 -33 15 -43 5z"/>
<path d="M16915 9531 c-88 -34 -128 -55 -145 -76 -19 -23 -62 -44 -154 -75
-112 -37 -113 -55 -5 -47 107 7 150 22 202 67 23 21 68 52 100 70 52 29 87 62
87 82 0 11 -6 10 -85 -21z"/>
<path d="M17030 9323 c-90 -32 -159 -64 -230 -107 -47 -28 -109 -62 -137 -75
-87 -40 -61 -63 43 -38 92 23 388 200 367 221 -7 7 -21 7 -43 -1z"/>
<path d="M16990 9124 c-25 -15 -102 -55 -172 -90 -122 -61 -147 -78 -134 -92
13 -12 135 16 199 47 70 34 167 117 167 144 0 23 -7 21 -60 -9z"/>
<path d="M8083 6683 c1440 -2 3794 -2 5230 0 1437 1 259 2 -2618 2 -2876 0
-4052 -1 -2612 -2z"/>
<path d="M15945 6670 c3 -5 8 -10 11 -10 2 0 4 5 4 10 0 6 -5 10 -11 10 -5 0
-7 -4 -4 -10z"/>
<path d="M15915 15795 c-288 -54 -543 -219 -705 -456 -126 -184 -179 -346
-187 -572 -6 -154 5 -247 44 -372 40 -128 134 -300 206 -376 l24 -25 -14 -228
c-13 -204 -13 -229 1 -251 33 -50 58 -44 285 64 l210 100 93 -19 c190 -38 332
-35 510 11 397 101 715 442 792 849 20 104 20 294 1 397 -42 224 -155 434
-313 584 -140 135 -305 228 -487 275 -127 33 -337 41 -460 19z m424 -171 c221
-56 425 -203 552 -399 47 -73 52 -91 13 -45 -163 188 -378 310 -618 351 -99
17 -311 6 -410 -20 -276 -73 -501 -249 -638 -498 -44 -79 -47 -74 -14 17 80
222 235 404 437 513 204 112 445 140 678 81z m-341 -569 c29 -9 67 -29 85 -44
l32 -29 35 30 c46 38 129 62 186 53 57 -8 123 -58 152 -115 30 -59 30 -145 1
-203 -31 -61 -338 -367 -369 -367 -32 0 -354 317 -381 375 -47 102 -7 234 86
282 68 36 101 39 173 18z"/>
<path d="M11078 2283 c23 -2 61 -2 85 0 23 2 4 4 -43 4 -47 0 -66 -2 -42 -4z"/>
<path d="M8595 2270 c-27 -3 22 -4 110 -2 88 3 162 6 164 8 7 6 -221 1 -274
-6z"/>
<path d="M11558 2273 c6 -2 18 -2 25 0 6 3 1 5 -13 5 -14 0 -19 -2 -12 -5z"/>
<path d="M11720 2270 l-45 -7 40 -1 c22 0 49 3 60 8 23 10 9 10 -55 0z"/>
<path d="M8298 2263 c6 -2 18 -2 25 0 6 3 1 5 -13 5 -14 0 -19 -2 -12 -5z"/>
<path d="M8398 2263 c18 -2 45 -2 60 0 15 2 0 4 -33 4 -33 0 -45 -2 -27 -4z"/>
<path d="M11034 2243 c-4 -16 -6 -34 -5 -42 1 -7 -2 -10 -8 -6 -7 4 -11 -4
-11 -19 0 -40 18 -30 25 14 4 22 11 38 16 34 5 -3 9 0 9 6 0 7 7 10 15 6 8 -3
15 -1 15 4 0 6 28 11 63 11 l62 2 -55 7 c-104 15 -117 13 -126 -17z"/>
<path d="M11453 2263 c9 -2 23 -2 30 0 6 3 -1 5 -18 5 -16 0 -22 -2 -12 -5z"/>
<path d="M11888 2263 c29 -2 74 -2 100 0 26 2 2 3 -53 3 -55 0 -76 -1 -47 -3z"/>
<path d="M8128 2253 c23 -2 59 -2 80 0 20 2 1 4 -43 4 -44 0 -61 -2 -37 -4z"/>
<path d="M8753 2253 c37 -2 96 -2 130 0 34 2 4 3 -68 3 -71 0 -99 -1 -62 -3z"/>
<path d="M11543 2253 c15 -2 39 -2 55 0 15 2 2 4 -28 4 -30 0 -43 -2 -27 -4z"/>
<path d="M11808 2253 c7 -3 16 -2 19 1 4 3 -2 6 -13 5 -11 0 -14 -3 -6 -6z"/>
<path d="M12135 2250 l-50 -7 52 -1 c28 -1 55 3 58 8 3 6 3 9 -2 8 -4 0 -30
-4 -58 -8z"/>
<path d="M12378 2243 c17 -2 47 -2 65 0 17 2 3 4 -33 4 -36 0 -50 -2 -32 -4z"/>
<path d="M9047 2234 c-4 -4 -7 -14 -7 -23 0 -11 3 -12 11 -4 6 6 10 16 7 23
-2 6 -7 8 -11 4z"/>
<path d="M7613 2223 c15 -2 37 -2 50 0 12 2 0 4 -28 4 -27 0 -38 -2 -22 -4z"/>
<path d="M12688 2223 c18 -2 45 -2 60 0 15 2 0 4 -33 4 -33 0 -45 -2 -27 -4z"/>
<path d="M7440 2210 c-21 -5 -3 -6 45 -3 44 3 82 7 84 9 8 7 -93 2 -129 -6z"/>
<path d="M12803 2213 c15 -2 37 -2 50 0 12 2 0 4 -28 4 -27 0 -38 -2 -22 -4z"/>
<path d="M12898 2203 c6 -2 18 -2 25 0 6 3 1 5 -13 5 -14 0 -19 -2 -12 -5z"/>
<path d="M12965 2201 c30 -13 113 -24 95 -13 -8 5 -37 12 -65 15 -30 4 -42 3
-30 -2z"/>
<path d="M7319 2195 c-3 -2 -30 -8 -60 -13 -48 -8 -42 -9 56 -10 61 0 128 3
150 8 29 6 16 7 -50 4 -60 -2 -80 -1 -60 5 l30 9 -31 1 c-17 0 -33 -1 -35 -4z"/>
<path d="M7658 2193 c7 -3 16 -2 19 1 4 3 -2 6 -13 5 -11 0 -14 -3 -6 -6z"/>
<path d="M12935 2179 c51 -10 92 -10 50 1 -16 4 -43 8 -60 8 -25 0 -24 -2 10
-9z"/>
<path d="M7573 2173 c26 -2 67 -2 90 0 23 2 2 3 -48 3 -49 0 -68 -1 -42 -3z"/>
<path d="M13128 2173 c7 -3 16 -2 19 1 4 3 -2 6 -13 5 -11 0 -14 -3 -6 -6z"/>
<path d="M7097 2163 c18 -2 50 -2 70 0 21 2 7 4 -32 4 -38 0 -55 -2 -38 -4z"/>
<path d="M7480 2160 c8 -5 22 -9 30 -9 10 0 8 3 -5 9 -27 12 -43 12 -25 0z"/>
<path d="M12905 2160 c-16 -7 -17 -9 -3 -9 9 -1 20 4 23 9 7 11 7 11 -20 0z"/>
<path d="M13268 2163 c50 -2 134 -2 185 0 50 1 9 3 -93 3 -102 0 -143 -2 -92
-3z"/>
<path d="M6658 2153 c12 -2 32 -2 45 0 12 2 2 4 -23 4 -25 0 -35 -2 -22 -4z"/>
<path d="M6280 2140 c30 -5 71 -8 90 -8 28 1 25 2 -15 8 -27 5 -68 8 -90 8
-35 -1 -33 -2 15 -8z"/>
<path d="M6448 2143 c6 -2 18 -2 25 0 6 3 1 5 -13 5 -14 0 -19 -2 -12 -5z"/>
<path d="M14263 2143 c20 -2 54 -2 75 0 20 2 3 4 -38 4 -41 0 -58 -2 -37 -4z"/>
<path d="M5850 2130 l-135 -6 145 -1 c80 -1 165 2 190 6 l45 8 -55 0 c-30 -1
-116 -4 -190 -7z"/>
<path d="M10968 2123 c-16 -18 -14 -43 3 -43 5 0 9 9 9 21 0 11 3 18 8 16 4
-3 13 1 20 9 11 12 10 14 -6 14 -10 0 -26 -8 -34 -17z"/>
<path d="M14501 2124 c0 -11 3 -14 6 -6 3 7 2 16 -1 19 -3 4 -6 -2 -5 -13z"/>
<path d="M5512 2094 c-1 -17 -4 -47 -7 -65 -5 -31 -5 -32 5 -9 6 13 9 42 7 65
-3 32 -4 34 -5 9z"/>
<path d="M5618 2113 c12 -2 30 -2 40 0 9 3 -1 5 -23 4 -22 0 -30 -2 -17 -4z"/>
<path d="M6268 2113 c6 -2 18 -2 25 0 6 3 1 5 -13 5 -14 0 -19 -2 -12 -5z"/>
<path d="M6443 2097 c0 -19 4 -23 19 -19 22 5 20 35 -3 40 -12 2 -16 -4 -16
-21z"/>
<path d="M14248 2113 c7 -3 16 -2 19 1 4 3 -2 6 -13 5 -11 0 -14 -3 -6 -6z"/>
<path d="M5761 2106 c2 -2 58 -6 124 -8 75 -4 103 -3 75 2 -45 8 -207 13 -199
6z"/>
<path d="M14178 2103 c12 -2 30 -2 40 0 9 3 -1 5 -23 4 -22 0 -30 -2 -17 -4z"/>
<path d="M15140 2021 c0 -50 4 -93 10 -96 6 -4 9 28 7 89 -1 53 -5 96 -9 96
-5 0 -8 -40 -8 -89z"/>
<path d="M15308 2103 c18 -2 45 -2 60 0 15 2 0 4 -33 4 -33 0 -45 -2 -27 -4z"/>
<path d="M6138 2093 c34 -2 90 -2 125 0 34 2 6 3 -63 3 -69 0 -97 -1 -62 -3z"/>
<path d="M14288 2093 c17 -2 47 -2 65 0 17 2 3 4 -33 4 -36 0 -50 -2 -32 -4z"/>
<path d="M14502 2080 c0 -14 2 -19 5 -12 2 6 2 18 0 25 -3 6 -5 1 -5 -13z"/>
<path d="M15230 2090 c25 -8 147 -13 139 -6 -2 2 -40 6 -84 8 -44 3 -69 2 -55
-2z"/>
<path d="M15458 2093 c18 -2 45 -2 60 0 15 2 0 4 -33 4 -33 0 -45 -2 -27 -4z"/>
<path d="M6340 2080 c0 -5 12 -10 26 -10 14 0 23 4 19 10 -3 6 -15 10 -26 10
-10 0 -19 -4 -19 -10z"/>
<path d="M15617 2083 c18 -2 50 -2 70 0 21 2 7 4 -32 4 -38 0 -55 -2 -38 -4z"/>
<path d="M4690 2070 c0 -5 4 -10 9 -10 5 0 17 -3 25 -6 12 -5 15 -2 10 10 -7
17 -44 22 -44 6z"/>
<path d="M4550 2060 l-45 -7 45 -1 c25 0 56 4 70 8 l25 8 -25 0 c-14 -1 -45
-4 -70 -8z"/>
<path d="M9208 2063 c10 -4 9 -8 -5 -19 -14 -10 -15 -13 -3 -13 8 0 24 4 35 8
19 8 19 8 -2 19 -12 7 -25 12 -30 11 -4 0 -2 -3 5 -6z"/>
<path d="M15195 2000 c-4 -39 -5 -73 -2 -76 2 -3 8 27 11 67 4 39 5 73 3 76
-3 2 -8 -28 -12 -67z"/>
<path d="M15921 2066 c2 -2 33 -6 69 -9 41 -3 54 -2 35 3 -31 8 -112 13 -104
6z"/>
<path d="M4453 2043 c9 -2 25 -2 35 0 9 3 1 5 -18 5 -19 0 -27 -2 -17 -5z"/>
<path d="M10650 2040 l-185 -6 180 -4 180 -4 -160 -6 -160 -6 160 -1 c88 -1
169 2 180 7 13 6 15 9 5 9 -13 1 -13 2 0 11 13 9 13 9 0 8 -8 -1 -98 -5 -200
-8z"/>
<path d="M16165 2040 c3 -5 18 -10 33 -11 15 0 36 -5 47 -10 14 -6 2 -8 -40
-5 -50 4 -54 3 -25 -4 19 -5 62 -7 95 -4 44 4 56 3 45 -5 -13 -9 -13 -11 2
-11 29 0 30 19 1 25 -15 3 -46 10 -68 15 -91 20 -97 21 -90 10z"/>
<path d="M4370 2030 c31 -8 28 -9 -20 -6 -30 2 -66 1 -79 -3 -13 -3 65 -7 174
-8 108 -1 196 0 194 2 -2 2 -47 6 -99 8 -52 3 -120 8 -150 11 -45 4 -49 3 -20
-4z"/>
<path d="M9588 2033 c123 -2 321 -2 440 0 119 1 19 2 -223 2 -242 0 -340 -1
-217 -2z"/>
<path d="M15953 2033 c15 -2 39 -2 55 0 15 2 2 4 -28 4 -30 0 -43 -2 -27 -4z"/>
<path d="M16063 2023 c9 -2 23 -2 30 0 6 3 -1 5 -18 5 -16 0 -22 -2 -12 -5z"/>
<path d="M9198 2013 c7 -3 16 -2 19 1 4 3 -2 6 -13 5 -11 0 -14 -3 -6 -6z"/>
<path d="M14510 2009 c0 -5 -4 -8 -8 -5 -5 3 -8 -14 -8 -38 1 -24 4 -39 7 -34
4 6 9 5 12 -3 3 -8 6 10 6 39 1 28 -1 52 -4 52 -3 0 -5 -5 -5 -11z"/>
<path d="M15948 2013 c12 -2 30 -2 40 0 9 3 -1 5 -23 4 -22 0 -30 -2 -17 -4z"/>
<path d="M4230 2000 c0 -8 64 -24 145 -35 29 -4 35 -3 20 4 -11 5 -33 10 -50
10 -24 1 -27 3 -15 12 12 8 10 9 -7 4 -12 -3 -38 -2 -58 4 -19 5 -35 6 -35 1z"/>
<path d="M16058 2003 c7 -3 16 -2 19 1 4 3 -2 6 -13 5 -11 0 -14 -3 -6 -6z"/>
<path d="M4538 1993 c7 -3 16 -2 19 1 4 3 -2 6 -13 5 -11 0 -14 -3 -6 -6z"/>
<path d="M10088 1993 c6 -2 18 -2 25 0 6 3 1 5 -13 5 -14 0 -19 -2 -12 -5z"/>
<path d="M10135 1990 c4 -6 11 -8 16 -5 14 9 11 15 -7 15 -8 0 -12 -5 -9 -10z"/>
<path d="M15173 1960 c0 -25 2 -35 4 -22 2 12 2 32 0 45 -2 12 -4 2 -4 -23z"/>
<path d="M4485 1980 c11 -5 32 -9 47 -9 15 -1 30 -6 33 -11 4 -7 -14 -9 -52
-6 l-58 5 52 -10 c38 -8 63 -7 95 2 l43 12 -50 8 c-108 16 -131 18 -110 9z"/>
<path d="M4618 1983 c18 -2 45 -2 60 0 15 2 0 4 -33 4 -33 0 -45 -2 -27 -4z"/>
<path d="M5501 1974 c0 -11 3 -14 6 -6 3 7 2 16 -1 19 -3 4 -6 -2 -5 -13z"/>
<path d="M15955 1980 l50 -7 -45 -3 c-27 -2 -35 -4 -20 -7 14 -2 66 2 115 10
l90 13 -120 0 c-81 0 -104 -2 -70 -6z"/>
<path d="M15835 1970 c-4 -6 5 -10 19 -10 14 0 26 5 26 10 0 6 -9 10 -19 10
-11 0 -23 -4 -26 -10z"/>
<path d="M4420 1966 c0 -2 7 -7 16 -10 8 -3 12 -2 9 4 -6 10 -25 14 -25 6z"/>
<path d="M16080 1960 c-11 -7 -7 -10 18 -10 17 0 32 5 32 10 0 13 -30 13 -50
0z"/>
<path d="M16163 1963 c9 -2 25 -2 35 0 9 3 1 5 -18 5 -19 0 -27 -2 -17 -5z"/>
<path d="M4693 1953 c9 -2 23 -2 30 0 6 3 -1 5 -18 5 -16 0 -22 -2 -12 -5z"/>
<path d="M15881 1946 c2 -2 18 -6 34 -10 22 -5 26 -4 15 4 -14 9 -59 15 -49 6z"/>
<path d="M16003 1943 c9 -2 23 -2 30 0 6 3 -1 5 -18 5 -16 0 -22 -2 -12 -5z"/>
<path d="M4658 1933 c12 -2 30 -2 40 0 9 3 -1 5 -23 4 -22 0 -30 -2 -17 -4z"/>
<path d="M15848 1933 c7 -3 16 -2 19 1 4 3 -2 6 -13 5 -11 0 -14 -3 -6 -6z"/>
<path d="M5870 1920 c0 -5 6 -10 14 -10 8 0 18 5 21 10 3 6 -3 10 -14 10 -12
0 -21 -4 -21 -10z"/>
<path d="M6500 1920 c0 -5 9 -10 20 -10 11 0 20 5 20 10 0 6 -9 10 -20 10 -11
0 -20 -4 -20 -10z"/>
<path d="M5582 1910 c-68 -4 -126 -10 -129 -14 -8 -8 235 5 267 15 30 9 31 9
-138 -1z"/>
<path d="M15322 1909 c7 -5 49 -8 93 -8 98 1 88 6 -23 12 -46 2 -77 0 -70 -4z"/>
<path d="M15608 1913 c6 -2 18 -2 25 0 6 3 1 5 -13 5 -14 0 -19 -2 -12 -5z"/>
<path d="M5778 1903 c12 -2 30 -2 40 0 9 3 -1 5 -23 4 -22 0 -30 -2 -17 -4z"/>
<path d="M6278 1903 c34 -2 90 -2 125 0 34 2 6 3 -63 3 -69 0 -97 -1 -62 -3z"/>
<path d="M14005 1901 c-37 -15 132 -24 339 -17 111 3 217 2 236 -3 25 -6 -21
-9 -152 -10 -104 -1 -188 -4 -188 -8 0 -9 277 -6 400 4 l85 7 -70 10 c-38 5
-185 10 -325 9 -168 0 -223 2 -160 7 l95 6 -120 1 c-66 1 -129 -2 -140 -6z"/>
<path d="M15128 1903 c12 -2 30 -2 40 0 9 3 -1 5 -23 4 -22 0 -30 -2 -17 -4z"/>
<path d="M5923 1893 c32 -2 81 -2 110 0 29 2 3 3 -58 3 -60 0 -84 -1 -52 -3z"/>
<path d="M15218 1893 c12 -2 32 -2 45 0 12 2 2 4 -23 4 -25 0 -35 -2 -22 -4z"/>
<path d="M5665 1879 c72 -3 182 -6 245 -6 l115 0 -135 8 c-74 3 -184 6 -245 6
l-110 0 130 -8z"/>
<path d="M6283 1883 c26 -2 68 -2 95 0 26 2 4 3 -48 3 -52 0 -74 -1 -47 -3z"/>
<path d="M14774 1879 c27 -4 99 -4 160 0 l111 8 -160 0 c-117 1 -147 -2 -111
-8z"/>
<path d="M6033 1868 c-2 -5 49 -7 114 -7 128 2 120 7 -20 11 -49 2 -91 0 -94
-4z"/>
<path d="M6608 1863 c17 -2 47 -2 65 0 17 2 3 4 -33 4 -36 0 -50 -2 -32 -4z"/>
<path d="M13945 1860 c28 -5 95 -8 150 -8 96 1 98 1 35 8 -36 4 -103 8 -150 7
-77 0 -80 0 -35 -7z"/>
<path d="M6368 1853 c18 -2 45 -2 60 0 15 2 0 4 -33 4 -33 0 -45 -2 -27 -4z"/>
<path d="M7333 1833 c37 -2 97 -2 135 0 37 2 6 3 -68 3 -74 0 -105 -1 -67 -3z"/>
<path d="M7825 1830 c19 -8 433 -14 424 -6 -2 2 -103 6 -224 9 -130 4 -212 2
-200 -3z"/>
<path d="M13033 1833 c48 -2 126 -2 175 0 48 1 8 3 -88 3 -96 0 -136 -2 -87
-3z"/>
<path d="M9488 1823 c23 -2 61 -2 85 0 23 2 4 4 -43 4 -47 0 -66 -2 -42 -4z"/>
<path d="M11123 1823 c15 -2 39 -2 55 0 15 2 2 4 -28 4 -30 0 -43 -2 -27 -4z"/>
<path d="M12448 1823 c68 -2 176 -2 240 0 64 1 9 3 -123 3 -132 0 -185 -2
-117 -3z"/>
<path d="M8323 1813 c15 -2 37 -2 50 0 12 2 0 4 -28 4 -27 0 -38 -2 -22 -4z"/>
<path d="M8827 1813 c94 -2 252 -2 350 0 98 1 21 2 -172 2 -192 1 -273 -1
-178 -2z"/>
<path d="M11508 1813 c84 -2 219 -2 300 0 81 1 12 3 -153 3 -165 0 -231 -2
-147 -3z"/>
</g>
</svg>
